<?xml version="1.0" encoding="UTF-8"?>
<svg version="1.1" xmlns="http://www.w3.org/2000/svg" width="523" height="547">
<path d="M0 0 C1.27922927 1.07340623 2.55013137 2.15681479 3.8125 3.25 C4.62332031 3.86875 5.43414062 4.4875 6.26953125 5.125 C17.39611651 14.42279168 23.58347164 28.58939228 30.17675781 41.15673828 C32.76650992 46.05407548 35.44445364 50.90194103 38.125 55.75 C39.03784298 57.4062045 39.95061203 59.06244975 40.86328125 60.71875 C41.51290065 61.89589967 42.16258897 63.07301132 42.8125 64.25 C43.14121094 63.13625 43.46992188 62.0225 43.80859375 60.875 C51.89878589 34.49014012 67.30931991 13.7456479 91.81494141 0.30493164 C105.28979937 -6.81474003 119.56559927 -10.91023955 134.8125 -11.75 C135.48925781 -11.79125 136.16601562 -11.8325 136.86328125 -11.875 C149.66993762 -12.26088795 162.15824036 -9.47488673 174.3125 -5.75 C175.63853191 -5.35155752 176.9647913 -4.95387145 178.29125977 -4.55688477 C181.0575548 -3.72591386 183.8208999 -2.88592403 186.58251953 -2.03955078 C190.12758507 -0.9546115 193.68027166 0.10259734 197.23571777 1.15293884 C229.68189283 10.75922687 257.50049606 23.93612177 274.68408203 54.89575195 C282.39054795 69.55814405 285.89096939 85.02157855 286.125 101.5 C286.14288574 102.32089111 286.16077148 103.14178223 286.17919922 103.98754883 C286.15965634 118.44230085 281.84106614 132.30879049 277.5625 145.96875 C277.03485493 147.6767684 276.50802363 149.38503837 275.98193359 151.09353638 C274.85665233 154.74211789 273.72596349 158.38895965 272.59082031 162.03448486 C270.77835642 167.85541822 268.9781146 173.68008808 267.1796875 179.50537109 C264.97889595 186.63134383 262.77534943 193.75645255 260.56820679 200.88046074 C255.13352849 218.42369406 249.74761084 235.98178524 244.36721516 253.54172802 C242.3890393 259.99703396 240.4067686 266.45107252 238.42260742 272.90454102 C233.52666584 288.83289867 228.64410079 304.76450965 223.84781265 320.72319794 C222.54949054 325.03882244 221.24484535 329.35254078 219.94023323 333.6662674 C218.5790486 338.1709229 217.23607705 342.68076008 215.89648438 347.19189453 C210.58330599 364.88114312 204.83399312 380.95640337 192.8125 395.25 C192.10351562 396.12140625 191.39453125 396.9928125 190.6640625 397.890625 C176.04060056 415.10090873 153.684571 426.98147099 131.25 430.00390625 C126.51955224 430.34256331 121.80426414 430.49850967 117.0625 430.5625 C116.19399414 430.58038574 115.32548828 430.59827148 114.43066406 430.61669922 C97.69949196 430.59524114 81.84549355 425.1174228 66.04077148 420.19995117 C62.39056188 419.06732869 58.73387889 417.95774513 55.07617188 416.84960938 C37.70901865 411.52131986 20.99576465 405.99865702 6.8125 394.25 C5.96300781 393.55132812 5.11351562 392.85265625 4.23828125 392.1328125 C-13.79621246 376.61154839 -27.45856644 353.20191149 -29.35498047 329.12353516 C-29.50542299 325.15689862 -29.41351383 321.21152027 -29.1875 317.25 C-30.33412109 317.30220703 -30.33412109 317.30220703 -31.50390625 317.35546875 C-44.96567925 317.69565796 -57.06678199 315.08403854 -69.1875 309.25 C-70.53908203 308.63898438 -70.53908203 308.63898438 -71.91796875 308.015625 C-77.60459351 305.22565037 -82.22674675 301.74464422 -86.875 297.5 C-87.64058228 296.8028186 -87.64058228 296.8028186 -88.42163086 296.09155273 C-97.86662768 287.12054169 -103.87535389 276.82709823 -109.75 265.375 C-110.53606466 263.86289707 -111.3233563 262.35143142 -112.11181641 260.84057617 C-113.31269311 258.53874297 -114.5126549 256.23647711 -115.70843506 253.93199158 C-119.42411056 246.77122599 -123.2350293 239.66395176 -127.0625 232.5625 C-132.06337592 223.25842235 -136.98257821 213.91599919 -141.84570312 204.53930664 C-145.17086859 198.14728974 -148.59054497 191.81332115 -152.0625 185.5 C-157.83653253 174.99440247 -163.35453844 164.36364129 -168.84375 153.70703125 C-170.91689521 149.68705088 -173.01450565 145.6830664 -175.15625 141.69921875 C-183.98205567 125.28069404 -183.98205567 125.28069404 -186.1875 117.25 C-186.35975098 116.62971924 -186.53200195 116.00943848 -186.70947266 115.37036133 C-191.65882888 95.7734669 -188.672671 74.30925935 -179.23046875 56.6328125 C-165.76608582 34.33805989 -146.00891728 24.12669785 -123.49926758 12.57910156 C-116.07881337 8.77065723 -108.73734658 4.84667634 -101.4375 0.8125 C-68.4470978 -17.27339928 -32.14121081 -24.74447521 0 0 Z " fill="#9E6CFE" transform="translate(218.1875,52.75)"/>
<path d="M0 0 C1.27922927 1.07340623 2.55013137 2.15681479 3.8125 3.25 C4.62332031 3.86875 5.43414062 4.4875 6.26953125 5.125 C18.21018845 15.10306071 24.80961425 30.74637341 31.8125 44.25 C32.41255859 45.40193848 33.01261719 46.55387695 33.63085938 47.74072266 C37.73829676 55.62668473 41.81288081 63.52940332 45.87963867 71.43640137 C53.22608447 85.71880718 60.59927617 99.97359776 68.34448242 114.04467773 C72.67433624 121.93378773 76.81994649 129.91278798 80.94189453 137.91210938 C84.09879209 144.01905037 87.34569545 150.06281789 90.68994141 156.0690918 C103.63436389 179.35082069 110.1994282 201.66008931 103.03515625 228.12109375 C96.3344042 250.23645137 81.79601312 266.26632572 61.8125 277.25 C56.76865004 279.93900999 51.69270333 282.5652588 46.60961914 285.17919922 C39.43081951 288.87170137 32.32076861 292.66747963 25.25 296.5625 C-1.48608578 311.23346174 -26.16495748 322.58043569 -57.1875 314.25 C-61.32952352 312.83760504 -65.24633009 311.14699464 -69.1875 309.25 C-70.53908203 308.63898438 -70.53908203 308.63898438 -71.91796875 308.015625 C-77.60459351 305.22565037 -82.22674675 301.74464422 -86.875 297.5 C-87.64058228 296.8028186 -87.64058228 296.8028186 -88.42163086 296.09155273 C-97.86662768 287.12054169 -103.87535389 276.82709823 -109.75 265.375 C-110.53606466 263.86289707 -111.3233563 262.35143142 -112.11181641 260.84057617 C-113.31269311 258.53874297 -114.5126549 256.23647711 -115.70843506 253.93199158 C-119.42411056 246.77122599 -123.2350293 239.66395176 -127.0625 232.5625 C-132.06337592 223.25842235 -136.98257821 213.91599919 -141.84570312 204.53930664 C-145.17086859 198.14728974 -148.59054497 191.81332115 -152.0625 185.5 C-157.83653253 174.99440247 -163.35453844 164.36364129 -168.84375 153.70703125 C-170.91689521 149.68705088 -173.01450565 145.6830664 -175.15625 141.69921875 C-183.98205567 125.28069404 -183.98205567 125.28069404 -186.1875 117.25 C-186.35975098 116.62971924 -186.53200195 116.00943848 -186.70947266 115.37036133 C-191.65882888 95.7734669 -188.672671 74.30925935 -179.23046875 56.6328125 C-165.76608582 34.33805989 -146.00891728 24.12669785 -123.49926758 12.57910156 C-116.07881337 8.77065723 -108.73734658 4.84667634 -101.4375 0.8125 C-68.4470978 -17.27339928 -32.14121081 -24.74447521 0 0 Z " fill="#FFCC2E" transform="translate(218.1875,52.75)"/>
<path d="M0 0 C2.45106559 3.18836372 4.32544731 6.37081294 6.15234375 9.9609375 C6.44831955 10.53899139 6.74429535 11.11704529 7.04924011 11.71261597 C7.68429712 12.95304678 8.31784317 14.19425211 8.95001221 15.43615723 C10.63051714 18.73567634 12.32406243 22.02846266 14.01953125 25.3203125 C14.35946106 25.98035278 14.69939087 26.64039307 15.04962158 27.32043457 C17.98900741 33.01119861 21.03214796 38.64116847 24.125 44.25 C28.93683043 52.98219236 33.56286558 61.79997913 38.12963867 70.66259766 C41.28646511 76.76936999 44.53328416 82.81297722 47.87744141 88.8190918 C60.82186389 112.10082069 67.3869282 134.41008931 60.22265625 160.87109375 C53.5219042 182.98645137 38.98351312 199.01632572 19 210 C13.95615004 212.68900999 8.88020333 215.3152588 3.79711914 217.92919922 C-3.38168049 221.62170137 -10.49173139 225.41747963 -17.5625 229.3125 C-42.96379323 243.25101756 -42.96379323 243.25101756 -55 247 C-56.05574219 247.33644531 -56.05574219 247.33644531 -57.1328125 247.6796875 C-62.13736697 249.11236388 -66.85179018 249.21450874 -72 249 C-72.76206872 234.77471729 -68.36022739 221.04953084 -64.07806396 207.65344238 C-63.21559262 204.95484221 -62.3645387 202.25285208 -61.51611328 199.54980469 C-60.6074628 196.65504411 -59.69823039 193.7604836 -58.78579712 190.86691284 C-55.73092219 181.17614122 -52.75448651 171.46196311 -49.78869629 161.74362183 C-48.22332536 156.61486228 -46.65431586 151.48721549 -45.0859375 146.359375 C-44.76125488 145.29746445 -44.43657227 144.23555389 -44.10205078 143.14146423 C-41.52169764 134.70272098 -38.93742348 126.26518179 -36.3515625 117.828125 C-36.15337543 117.18147636 -35.95518837 116.53482773 -35.75099564 115.86858368 C-33.92929476 109.92481193 -32.10736197 103.98111129 -30.28521729 98.03747559 C-29.08066597 94.1083489 -27.87621544 90.17919133 -26.671875 86.25 C-26.47498455 85.60764656 -26.2780941 84.96529312 -26.07523727 84.30347443 C-23.27984567 75.18291328 -20.48968223 66.06076413 -17.703125 56.9375 C-17.02671388 54.72395186 -16.35028207 52.51041005 -15.67382812 50.296875 C-14.44201169 46.26603468 -13.21173007 42.23473086 -11.98242188 38.203125 C-8.0843328 25.43772099 -4.07434846 12.71022097 0 0 Z " fill="#FE8389" transform="translate(261,120)"/>
<path d="M0 0 C5.99600416 3.66919657 10.43095838 8.52847834 12.4375 15.3125 C13.59699689 23.62718284 13.09122299 30.28792786 8.20703125 37.25390625 C3.62632805 42.5828921 -1.51638336 45.60154048 -8.5625 46.3125 C-16.12040225 46.40893256 -22.47678196 44.7960147 -28.28515625 39.84375 C-33.17100531 34.7538237 -35.46556541 28.7004058 -35.62109375 21.66015625 C-35.10537386 14.36326844 -32.71425763 8.5998302 -27.5625 3.3125 C-19.83988059 -2.90660059 -9.09301153 -4.20207351 0 0 Z M-25.9375 9.6875 C-29.41165998 14.15562946 -30.81116412 18.00875488 -30.5 23.6875 C-29.55565197 30.19910912 -26.57876306 34.73981482 -21.4375 38.75 C-16.82235029 41.25823354 -12.7556525 41.96280532 -7.5625 41.3125 C-1.38552385 39.39590553 2.86520258 35.64004391 6.4375 30.3125 C8.13332898 25.22501305 8.42881523 19.36008626 6.75390625 14.2109375 C3.93498405 8.90060274 -0.09398753 5.39247421 -5.5625 3 C-13.92178513 1.08433049 -20.19794586 3.37399045 -25.9375 9.6875 Z " fill="#9E6CFF" transform="translate(102.5625,402.6875)"/>
<path d="M0 0 C13.33333333 -0.49382716 13.33333333 -0.49382716 16.42578125 1.796875 C18.7024252 4.98304668 18.47778994 7.17768049 18 11 C16.5 13.4375 16.5 13.4375 15 15 C15.495 15.5775 15.99 16.155 16.5 16.75 C18 19 18 19 18 23 C15.75 22.875 15.75 22.875 13 22 C11.66666667 20 10.33333333 18 9 16 C6.37233611 15.03780298 6.37233611 15.03780298 4 15 C4 17.64 4 20.28 4 23 C2.68 23 1.36 23 0 23 C0 15.41 0 7.82 0 0 Z M4 4 C4 5.98 4 7.96 4 10 C6.64 10 9.28 10 12 10 C12.33 8.68 12.66 7.36 13 6 C9.5647952 3.70986347 8.014669 3.82157027 4 4 Z " fill="#9E6CFF" transform="translate(83,413)"/>
</svg>
