<?xml version="1.0" encoding="UTF-8"?>
<svg version="1.1" xmlns="http://www.w3.org/2000/svg" width="2645" height="846">
<path d="M0 0 C1.27922927 1.07340623 2.55013137 2.15681479 3.8125 3.25 C4.62332031 3.86875 5.43414063 4.4875 6.26953125 5.125 C17.39611651 14.42279168 23.58347164 28.58939228 30.17675781 41.15673828 C32.76650992 46.05407548 35.44445364 50.90194103 38.125 55.75 C39.03784298 57.4062045 39.95061203 59.06244975 40.86328125 60.71875 C41.51290065 61.89589967 42.16258897 63.07301132 42.8125 64.25 C43.14121094 63.13625 43.46992187 62.0225 43.80859375 60.875 C51.89878589 34.49014012 67.30931991 13.7456479 91.81494141 0.30493164 C105.28979937 -6.81474003 119.56559927 -10.91023955 134.8125 -11.75 C135.48925781 -11.79125 136.16601562 -11.8325 136.86328125 -11.875 C149.66993762 -12.26088795 162.15824036 -9.47488673 174.3125 -5.75 C175.63853191 -5.35155752 176.9647913 -4.95387145 178.29125977 -4.55688477 C181.0575548 -3.72591386 183.8208999 -2.88592403 186.58251953 -2.03955078 C190.12758507 -0.9546115 193.68027166 0.10259734 197.23571777 1.15293884 C229.68189283 10.75922687 257.50049606 23.93612177 274.68408203 54.89575195 C282.39054795 69.55814405 285.89096939 85.02157855 286.125 101.5 C286.14288574 102.32089111 286.16077148 103.14178223 286.17919922 103.98754883 C286.15965634 118.44230085 281.84106614 132.30879049 277.5625 145.96875 C277.03485493 147.6767684 276.50802363 149.38503837 275.98193359 151.09353638 C274.85665233 154.74211789 273.72596349 158.38895965 272.59082031 162.03448486 C270.77835642 167.85541822 268.9781146 173.68008808 267.1796875 179.50537109 C264.97889595 186.63134383 262.77534943 193.75645255 260.56820679 200.88046074 C255.13352849 218.42369406 249.74761084 235.98178524 244.36721516 253.54172802 C242.3890393 259.99703396 240.4067686 266.45107252 238.42260742 272.90454102 C233.52666584 288.83289867 228.64410079 304.76450965 223.84781265 320.72319794 C222.54949054 325.03882244 221.24484535 329.35254078 219.94023323 333.6662674 C218.5790486 338.1709229 217.23607705 342.68076008 215.89648438 347.19189453 C210.58330599 364.88114312 204.83399312 380.95640337 192.8125 395.25 C192.10351562 396.12140625 191.39453125 396.9928125 190.6640625 397.890625 C176.04060056 415.10090873 153.684571 426.98147099 131.25 430.00390625 C126.51955224 430.34256331 121.80426414 430.49850967 117.0625 430.5625 C116.19399414 430.58038574 115.32548828 430.59827148 114.43066406 430.61669922 C97.69949196 430.59524114 81.84549355 425.1174228 66.04077148 420.19995117 C62.39056188 419.06732869 58.73387889 417.95774513 55.07617188 416.84960938 C37.70901865 411.52131986 20.99576465 405.99865702 6.8125 394.25 C5.96300781 393.55132813 5.11351562 392.85265625 4.23828125 392.1328125 C-13.79621246 376.61154839 -27.45856644 353.20191149 -29.35498047 329.12353516 C-29.50542299 325.15689862 -29.41351383 321.21152027 -29.1875 317.25 C-30.33412109 317.30220703 -30.33412109 317.30220703 -31.50390625 317.35546875 C-44.96567925 317.69565796 -57.06678199 315.08403854 -69.1875 309.25 C-70.53908203 308.63898438 -70.53908203 308.63898438 -71.91796875 308.015625 C-77.60459351 305.22565037 -82.22674675 301.74464422 -86.875 297.5 C-87.64058228 296.8028186 -87.64058228 296.8028186 -88.42163086 296.09155273 C-97.86662768 287.12054169 -103.87535389 276.82709823 -109.75 265.375 C-110.53606466 263.86289707 -111.3233563 262.35143142 -112.11181641 260.84057617 C-113.31269311 258.53874297 -114.5126549 256.23647711 -115.70843506 253.93199158 C-119.42411056 246.77122599 -123.2350293 239.66395176 -127.0625 232.5625 C-132.06337592 223.25842235 -136.98257821 213.91599919 -141.84570312 204.53930664 C-145.17086859 198.14728974 -148.59054497 191.81332115 -152.0625 185.5 C-157.83653253 174.99440247 -163.35453844 164.36364129 -168.84375 153.70703125 C-170.91689521 149.68705088 -173.01450565 145.6830664 -175.15625 141.69921875 C-183.98205567 125.28069404 -183.98205567 125.28069404 -186.1875 117.25 C-186.35975098 116.62971924 -186.53200195 116.00943848 -186.70947266 115.37036133 C-191.65882888 95.7734669 -188.672671 74.30925935 -179.23046875 56.6328125 C-165.76608582 34.33805989 -146.00891728 24.12669785 -123.49926758 12.57910156 C-116.07881337 8.77065723 -108.73734658 4.84667634 -101.4375 0.8125 C-68.4470978 -17.27339928 -32.14121081 -24.74447521 0 0 Z " fill="#9E6CFE" transform="translate(761.1875,215.75)"/>
<path d="M0 0 C2.62365875 2.25657837 5.17566031 4.55654102 7.67578125 6.94921875 C12.87317798 11.53515704 16.53912414 12.57246374 23.37109375 12.3359375 C28.1949248 11.71951927 30.79894606 9.05317043 34.34765625 5.94140625 C50.47434777 -7.81849025 68.29126497 -11.47583425 89 -10 C105.59671206 -8.1802709 119.34147944 -1.17397428 130.1484375 11.484375 C135.71522029 19.04768326 141 29.40347056 141 39 C141.66 39 142.32 39 143 39 C143.25523437 37.19015625 143.25523437 37.19015625 143.515625 35.34375 C143.75970618 33.72905911 144.00453807 32.11448157 144.25 30.5 C144.41435547 29.31277344 144.41435547 29.31277344 144.58203125 28.1015625 C146.4753808 15.94426537 153.35897446 7.36478901 162.8125 -0.3125 C176.55473747 -9.95665473 193.31705775 -11.65490146 209.5625 -9.53515625 C222.22676472 -6.96272748 231.35786051 -1.30307771 240.40625 7.609375 C245.25970217 12.08273754 248.8488147 12.45439755 255.32421875 12.30859375 C259.85835201 11.78567911 262.39357666 9.57453404 265.57421875 6.45703125 C278.51053053 -5.8058066 295.35462878 -10.50168501 312.83544922 -10.35424805 C331.21714634 -9.83415004 349.5826191 -3.93665928 362.6875 9.4375 C373.13978633 21.74755355 379.10895519 38.26477067 379.13371277 54.35795593 C379.13797775 55.61557739 379.14224274 56.87319885 379.14663696 58.16893005 C379.14628751 59.54971317 379.14582602 60.93049625 379.14526367 62.3112793 C379.14825797 63.77525925 379.15166113 65.23923842 379.15544128 66.70321655 C379.16425359 70.66781652 379.16661811 74.63239489 379.16725707 78.5970037 C379.16796865 81.07386038 379.17010491 83.55071159 379.17275429 86.02756691 C379.18199546 94.6675514 379.18609033 103.30752049 379.18530273 111.94750977 C379.18470086 120.00464324 379.1952773 128.06170999 379.2110464 136.11882657 C379.22410623 143.03783632 379.22948735 149.95682421 379.22884732 156.87584621 C379.22859207 161.00792434 379.23145922 165.13994303 379.24202538 169.2720089 C379.25168126 173.15358418 379.25180292 177.03504285 379.24450874 180.91662216 C379.24346007 182.34248207 379.24584249 183.76834915 379.2518692 185.1941967 C379.25955121 187.13711489 379.25376219 189.08007257 379.24723816 191.022995 C379.24778293 192.11121394 379.24832769 193.19943289 379.24888897 194.32062817 C379 197 379 197 377 200 C374.17660846 200.94113051 372.42487791 201.13130163 369.50024414 201.14526367 C368.1385183 201.15483345 368.1385183 201.15483345 366.74928284 201.16459656 C365.77112106 201.16570938 364.79295929 201.1668222 363.78515625 201.16796875 C362.27422646 201.17296135 362.27422646 201.17296135 360.73277283 201.17805481 C358.6018825 201.18311866 356.47098423 201.1854633 354.34008789 201.18530273 C351.07880607 201.18748907 347.81786257 201.20565021 344.55664062 201.22460938 C342.48698032 201.22754342 340.41731842 201.22952814 338.34765625 201.23046875 C337.37151871 201.23765427 336.39538116 201.24483978 335.3896637 201.25224304 C334.47869431 201.24916641 333.56772491 201.24608978 332.62915039 201.24291992 C331.43026939 201.24505745 331.43026939 201.24505745 330.20716858 201.24723816 C327.71643464 200.96823615 326.11839663 200.32588693 324 199 C322.73280327 196.46560655 322.86961611 194.70494585 322.86196899 191.86697388 C322.85651566 190.77931229 322.85106232 189.6916507 322.84544373 188.57102966 C322.8444014 187.37212601 322.84335907 186.17322235 322.84228516 184.93798828 C322.83448537 183.00561272 322.82668156 181.07323716 322.81872725 179.14086223 C322.81100455 177.05879524 322.80562653 174.97673267 322.80076981 172.89465714 C322.79008261 168.54772155 322.76983166 164.20086363 322.74765015 159.85397339 C322.68576368 147.49090166 322.63185264 135.12783281 322.59863281 122.76464844 C322.58021455 115.9400373 322.55118173 109.11555482 322.5106281 102.29103839 C322.48966363 98.68342515 322.47411611 95.07597338 322.47182083 91.46829605 C322.46924935 87.43067136 322.44366432 83.39349132 322.41650391 79.35595703 C322.41951004 78.17729568 322.42251617 76.99863434 322.4256134 75.78425598 C322.30730653 63.883594 320.45612539 52.86188956 312 44 C304.14060038 38.24792675 296.58269759 37.19552662 287 38 C278.84722648 39.72866831 273.54816272 44.10948097 269 51 C264.01547999 61.17131039 263.8515591 71.41558389 263.82641602 82.51879883 C263.819729 83.75385162 263.81304199 84.98890442 263.80615234 86.26138306 C263.79214657 88.93227724 263.77981145 91.60311912 263.77020454 94.27402687 C263.75466788 98.49715306 263.73072383 102.7202063 263.70530701 106.94328308 C263.63431178 118.94643546 263.57417896 130.94962721 263.52319336 142.95288086 C263.49491084 149.59394246 263.45955372 156.23492899 263.41653961 162.87591189 C263.38976672 167.0749308 263.37186339 171.27386501 263.36050236 175.47295249 C263.34925148 178.69141013 263.32512752 181.90977552 263.30297852 185.12817383 C263.30238937 186.29236343 263.30180023 187.45655304 263.30119324 188.65602112 C263.29147491 189.7171814 263.28175659 190.77834167 263.27174377 191.87165833 C263.26751184 192.79504407 263.2632799 193.71842981 263.25891972 194.66979694 C263 197 263 197 261 200 C258.20269287 200.93243571 256.41526332 201.14599872 253.51611328 201.19287109 C252.61152374 201.20893402 251.7069342 201.22499695 250.77493286 201.24154663 C246.64830373 201.28608765 242.52183276 201.32704283 238.39501953 201.35009766 C236.21847859 201.36667278 234.04199242 201.39398305 231.86572266 201.43212891 C228.72529916 201.48687329 225.58614875 201.50876613 222.4453125 201.5234375 C221.47433624 201.54610687 220.50335999 201.56877625 219.50296021 201.59213257 C218.59206635 201.58928253 217.68117249 201.5864325 216.74267578 201.58349609 C215.9456424 201.59158295 215.14860901 201.5996698 214.3274231 201.60800171 C210.49649406 200.60723335 209.2612884 199.27460479 207 196 C206.26043841 191.82773896 206.34121564 187.70141843 206.38818359 183.47387695 C206.38251877 182.20173843 206.37685394 180.92959991 206.37101746 179.61891174 C206.3588533 176.85610928 206.36228777 174.09392468 206.37784958 171.33114052 C206.40221674 166.95497453 206.3906493 162.57934658 206.37417603 158.20317078 C206.34968948 150.48516335 206.35547399 142.76740124 206.36798096 135.04937744 C206.38655245 123.44951838 206.38158578 111.8497082 206.34794676 100.24988335 C206.33648989 95.9080011 206.34079451 91.56651365 206.35796714 87.22465384 C206.36399466 85.16793029 206.36322877 83.11133867 206.35957336 81.05461121 C206.35536335 78.55825122 206.36169934 76.06183929 206.38117981 73.56555176 C206.33084624 62.98037832 204.65853147 53.76225876 197 46 C190.27712302 40.52983302 182.68061231 38.25167135 174 39 C165.888801 40.36538516 160.4143411 43.83274439 155 50 C149.03798962 58.73189623 148.70643105 68.44080024 148.72875977 78.6706543 C148.72353302 79.92200165 148.71830627 81.173349 148.71292114 82.46261597 C148.70270786 85.16959327 148.69596622 87.87631737 148.69503975 90.58328819 C148.69308911 94.86580312 148.67498423 99.14815845 148.65428162 103.43061829 C148.60524004 114.06152968 148.57418635 124.69248389 148.55297852 135.32348633 C148.53645002 143.59895759 148.51364431 151.87429047 148.46995777 160.14966899 C148.4482047 164.40506446 148.44012116 168.66019681 148.44235051 172.91564405 C148.44029117 176.18299624 148.41893413 179.45023382 148.40063477 182.7175293 C148.40521194 183.89322983 148.40978912 185.06893036 148.414505 186.28025818 C148.40485718 187.36099609 148.39520935 188.44173401 148.38526917 189.55522156 C148.38325784 190.4915124 148.38124651 191.42780325 148.37917423 192.39246655 C147.92170699 195.53841114 146.84824854 197.43448851 145 200 C142.63838388 201.18080806 141.17235343 201.14519695 138.5378418 201.17700195 C137.61315598 201.18983719 136.68847015 201.20267242 135.73576355 201.21589661 C134.23267387 201.22697701 134.23267387 201.22697701 132.69921875 201.23828125 C131.6706929 201.246353 130.64216705 201.25442474 129.58247375 201.26274109 C127.40273732 201.27658767 125.22297914 201.28730725 123.04321289 201.29516602 C119.71133273 201.31237689 116.38044514 201.35625835 113.04882812 201.40039062 C110.93229897 201.41051756 108.81576137 201.41903366 106.69921875 201.42578125 C105.20523811 201.45204338 105.20523811 201.45204338 103.68107605 201.47883606 C102.74693375 201.47591049 101.81279144 201.47298492 100.8503418 201.4699707 C100.03252731 201.47583694 99.21471283 201.48170319 98.37211609 201.48774719 C94.70744044 200.73422789 93.3994453 199.94647963 91 197 C90.24631473 192.88617939 90.35220252 188.80635194 90.40405273 184.63500977 C90.3999942 183.36783615 90.39593567 182.10066254 90.39175415 180.79508972 C90.38296297 178.03935513 90.38971967 175.28425025 90.40841484 172.52856636 C90.43755465 168.16007004 90.42969856 163.7921137 90.41651917 159.42356873 C90.3958467 150.92464406 90.411436 142.42598042 90.43199158 133.92707062 C90.45711548 123.14227148 90.46982788 112.35762334 90.44203526 101.57281917 C90.43215319 97.24253994 90.44204179 92.9129162 90.46794307 88.58270943 C90.47725788 86.52748295 90.47735647 84.47249269 90.47354126 82.41725159 C90.46906682 79.92812236 90.47844961 77.43890583 90.50559998 74.94992065 C90.44380058 64.57371867 88.58983156 53.85159753 81.77734375 45.65234375 C75.15313903 39.49401716 67.82285318 37.59333435 59.0078125 37.734375 C51.60465102 38.38816069 45.76606812 40.68547961 40.5625 46.0625 C31.97014646 56.76772736 31.85608391 69.41742364 31.82641602 82.51879883 C31.8163855 84.37137802 31.8163855 84.37137802 31.80615234 86.26138306 C31.79214657 88.93227724 31.77981145 91.60311912 31.77020454 94.27402687 C31.75466788 98.49715306 31.73072383 102.7202063 31.70530701 106.94328308 C31.63431178 118.94643546 31.57417896 130.94962721 31.52319336 142.95288086 C31.49491084 149.59394246 31.45955372 156.23492899 31.41653961 162.87591189 C31.38976672 167.0749308 31.37186339 171.27386501 31.36050236 175.47295249 C31.34925148 178.69141013 31.32512752 181.90977552 31.30297852 185.12817383 C31.30238937 186.29236343 31.30180023 187.45655304 31.30119324 188.65602112 C31.28661575 190.24776154 31.28661575 190.24776154 31.27174377 191.87165833 C31.26751184 192.79504407 31.2632799 193.71842981 31.25891972 194.66979694 C31 197 31 197 29 200 C26.20269287 200.93243571 24.41526332 201.14599872 21.51611328 201.19287109 C20.61152374 201.20893402 19.7069342 201.22499695 18.77493286 201.24154663 C14.64830373 201.28608765 10.52183276 201.32704283 6.39501953 201.35009766 C4.21847859 201.36667278 2.04199242 201.39398305 -0.13427734 201.43212891 C-3.27470084 201.48687329 -6.41385125 201.50876613 -9.5546875 201.5234375 C-10.52566376 201.54610687 -11.49664001 201.56877625 -12.49703979 201.59213257 C-13.40793365 201.58928253 -14.31882751 201.5864325 -15.25732422 201.58349609 C-16.0543576 201.59158295 -16.85139099 201.5996698 -17.6725769 201.60800171 C-21.50747368 200.60619684 -22.73858169 199.28103146 -25 196 C-25.73561246 191.8019424 -25.64841332 187.65014501 -25.59594727 183.39794922 C-25.6000058 182.11766342 -25.60406433 180.83737762 -25.60824585 179.51829529 C-25.61702718 176.73747512 -25.61029998 173.9572796 -25.59158516 171.17650986 C-25.56242747 166.77067882 -25.57030534 162.36538257 -25.58348083 157.95950317 C-25.60413852 149.39272324 -25.58856452 140.82620272 -25.56800842 132.25943756 C-25.54286886 121.37724553 -25.53013061 110.49520176 -25.55796474 99.6130048 C-25.56786289 95.24286594 -25.55792066 90.87337542 -25.53205693 86.50330806 C-25.5227605 84.43210933 -25.52263767 82.36114535 -25.52645874 80.28993225 C-25.53094715 77.77774719 -25.521459 75.26547657 -25.49440002 72.75343323 C-25.55576893 62.41078627 -27.67084232 53.27827271 -35.02734375 45.65625 C-41.3810354 40.32166533 -48.84974962 38.89132999 -57 39 C-65.09471952 39.92146544 -71.59822947 43.68159825 -76.6484375 49.93359375 C-80.84622154 56.35159305 -83.11731909 63.71894842 -83.13803101 71.3447113 C-83.14348434 72.42841003 -83.14893768 73.51210876 -83.15455627 74.62864685 C-83.15611977 76.40466026 -83.15611977 76.40466026 -83.15771484 78.21655273 C-83.16279556 79.46731598 -83.16787628 80.71807922 -83.17311096 82.00674438 C-83.18381627 84.72463323 -83.19281653 87.44247111 -83.19923019 90.16036797 C-83.20992639 94.4593347 -83.23017465 98.75822322 -83.25234985 103.05714417 C-83.31422259 115.28065413 -83.36830183 127.50415882 -83.40136719 139.7277832 C-83.41971466 146.48092756 -83.44864906 153.23394015 -83.4893719 159.98698765 C-83.51043399 163.55913753 -83.52589807 167.13112147 -83.52817917 170.70333672 C-83.53072621 174.68704695 -83.55619039 178.67043137 -83.58349609 182.65405273 C-83.58048996 183.83603745 -83.57748383 185.01802216 -83.5743866 186.23582458 C-83.58547958 187.32234314 -83.59657257 188.40886169 -83.60800171 189.52830505 C-83.61131186 190.46979117 -83.614622 191.41127729 -83.61803246 192.3812933 C-84.07766011 195.53242496 -85.14790112 197.43041512 -87 200 C-89.35776163 201.17888081 -90.83189423 201.15138823 -93.4621582 201.19287109 C-94.38684402 201.20893402 -95.31152985 201.22499695 -96.26423645 201.24154663 C-100.49507947 201.28598044 -104.72576535 201.32706068 -108.95678711 201.35009766 C-111.18866399 201.36666015 -113.42048777 201.39395381 -115.65209961 201.43212891 C-118.86860698 201.48687594 -122.0838708 201.50876871 -125.30078125 201.5234375 C-126.29676834 201.54610687 -127.29275543 201.56877625 -128.31892395 201.59213257 C-129.25306625 201.58928253 -130.18720856 201.5864325 -131.1496582 201.58349609 C-131.96747269 201.59158295 -132.78528717 201.5996698 -133.62788391 201.60800171 C-137.24986453 200.67964478 -138.67258329 198.88697333 -141 196 C-141.48871431 193.11553912 -141.66954332 190.82467013 -141.62145996 187.94676208 C-141.62784878 187.14085241 -141.6342376 186.33494273 -141.64082003 185.50461155 C-141.65606999 182.80652285 -141.63560959 180.1099026 -141.61523438 177.41186523 C-141.61873555 175.47675083 -141.62439409 173.5416393 -141.63204956 171.60653687 C-141.64630669 166.35240879 -141.62922733 161.09880347 -141.60576439 155.84472537 C-141.58567259 150.34929002 -141.59153403 144.85387674 -141.59387207 139.3584137 C-141.59381848 130.13053758 -141.57405235 120.90286613 -141.54199219 111.67504883 C-141.50508795 101.0009656 -141.496318 90.32715043 -141.5032897 79.65301174 C-141.50959082 69.39019484 -141.49884834 59.12747003 -141.47932434 48.86467171 C-141.471142 44.49433138 -141.46844232 40.12403807 -141.47001648 35.75369072 C-141.47089423 30.60970226 -141.45670864 25.46596927 -141.43078995 20.32204819 C-141.4236168 18.43220699 -141.42155003 16.54233863 -141.42490768 14.6524868 C-141.42861155 12.07679712 -141.41391347 9.50185754 -141.39440918 6.92625427 C-141.39973711 6.17479942 -141.40506503 5.42334457 -141.41055441 4.64911836 C-141.36965828 1.52834656 -141.17936617 -0.67365057 -139.66284943 -3.43289089 C-136.90533851 -6.0316352 -134.22069912 -6.12941254 -130.60791016 -6.16113281 C-129.28105698 -6.17554413 -129.28105698 -6.17554413 -127.92739868 -6.19024658 C-126.49767227 -6.1966214 -126.49767227 -6.1966214 -125.0390625 -6.203125 C-123.56498428 -6.21167511 -123.56498428 -6.21167511 -122.06112671 -6.22039795 C-119.98151729 -6.22984519 -117.90189293 -6.23638083 -115.82226562 -6.24023438 C-112.64426519 -6.24994116 -109.46691118 -6.28096786 -106.2890625 -6.3125 C-104.26823301 -6.31903011 -102.24739889 -6.32428055 -100.2265625 -6.328125 C-99.27746002 -6.3404718 -98.32835754 -6.3528186 -97.35049438 -6.36553955 C-92.44321162 -6.34900831 -88.93909493 -6.29042059 -85 -3 C-83.99799982 -0.92327381 -83.52454113 1.02647459 -82.96875 3.2578125 C-82.10437315 5.22300188 -82.10437315 5.22300188 -79.75390625 6 C-75.83634844 6 -74.39703055 4.37952789 -71.4375 1.875 C-52.16429667 -13.61378891 -20.04415784 -15.4655431 0 0 Z " fill="#9E6CFF" transform="translate(1693,328)"/>
<path d="M0 0 C1.27922927 1.07340623 2.55013137 2.15681479 3.8125 3.25 C4.62332031 3.86875 5.43414063 4.4875 6.26953125 5.125 C18.21018845 15.10306071 24.80961425 30.74637341 31.8125 44.25 C32.41255859 45.40193848 33.01261719 46.55387695 33.63085938 47.74072266 C37.73829676 55.62668473 41.81288081 63.52940332 45.87963867 71.43640137 C53.22608447 85.71880718 60.59927617 99.97359776 68.34448242 114.04467773 C72.67433624 121.93378773 76.81994649 129.91278798 80.94189453 137.91210938 C84.09879209 144.01905037 87.34569545 150.06281789 90.68994141 156.0690918 C103.63436389 179.35082069 110.1994282 201.66008931 103.03515625 228.12109375 C96.3344042 250.23645137 81.79601312 266.26632572 61.8125 277.25 C56.76865004 279.93900999 51.69270333 282.5652588 46.60961914 285.17919922 C39.43081951 288.87170137 32.32076861 292.66747963 25.25 296.5625 C-1.48608578 311.23346174 -26.16495748 322.58043569 -57.1875 314.25 C-61.32952352 312.83760504 -65.24633009 311.14699464 -69.1875 309.25 C-70.53908203 308.63898438 -70.53908203 308.63898438 -71.91796875 308.015625 C-77.60459351 305.22565037 -82.22674675 301.74464422 -86.875 297.5 C-87.64058228 296.8028186 -87.64058228 296.8028186 -88.42163086 296.09155273 C-97.86662768 287.12054169 -103.87535389 276.82709823 -109.75 265.375 C-110.53606466 263.86289707 -111.3233563 262.35143142 -112.11181641 260.84057617 C-113.31269311 258.53874297 -114.5126549 256.23647711 -115.70843506 253.93199158 C-119.42411056 246.77122599 -123.2350293 239.66395176 -127.0625 232.5625 C-132.06337592 223.25842235 -136.98257821 213.91599919 -141.84570312 204.53930664 C-145.17086859 198.14728974 -148.59054497 191.81332115 -152.0625 185.5 C-157.83653253 174.99440247 -163.35453844 164.36364129 -168.84375 153.70703125 C-170.91689521 149.68705088 -173.01450565 145.6830664 -175.15625 141.69921875 C-183.98205567 125.28069404 -183.98205567 125.28069404 -186.1875 117.25 C-186.35975098 116.62971924 -186.53200195 116.00943848 -186.70947266 115.37036133 C-191.65882888 95.7734669 -188.672671 74.30925935 -179.23046875 56.6328125 C-165.76608582 34.33805989 -146.00891728 24.12669785 -123.49926758 12.57910156 C-116.07881337 8.77065723 -108.73734658 4.84667634 -101.4375 0.8125 C-68.4470978 -17.27339928 -32.14121081 -24.74447521 0 0 Z " fill="#FFCC2E" transform="translate(761.1875,215.75)"/>
<path d="M0 0 C0.70898438 0.62390625 1.41796875 1.2478125 2.1484375 1.890625 C2.89867187 2.53515625 3.64890625 3.1796875 4.421875 3.84375 C18.49011949 16.80766131 25.26674055 36.29523682 26.32861328 55.07756042 C26.61470664 63.66386953 26.62187877 72.25341691 26.61727715 80.84355831 C26.61715624 83.8363396 26.62576617 86.82907359 26.63405466 89.82184148 C26.65315882 96.875727 26.65621568 103.92949417 26.64941406 110.98339844 C26.64273715 118.25018662 26.66581251 125.51647192 26.70272779 132.78315806 C26.73339148 139.04763983 26.74478985 145.31195915 26.74089098 151.57651448 C26.73882517 155.30786618 26.74428089 159.03882332 26.76878357 162.77010345 C26.79512333 166.91576432 26.78134908 171.06034801 26.76367188 175.20605469 C26.77693512 176.4382373 26.79019836 177.67041992 26.80386353 178.93994141 C26.72176992 187.19193414 26.72176992 187.19193414 23.88246155 190.65205383 C21.26020027 191.83999408 19.63817575 192.39167907 16.78881836 192.39233398 C15.9612352 192.40171494 15.13365204 192.41109589 14.2809906 192.42076111 C12.96047447 192.40391014 12.96047447 192.40391014 11.61328125 192.38671875 C10.6976088 192.38817398 9.78193634 192.38962921 8.83851624 192.39112854 C6.90785532 192.38947242 4.97718081 192.37794326 3.04663086 192.35717773 C0.09236618 192.32818808 -2.86010694 192.33658164 -5.81445312 192.34960938 C-7.69271705 192.34337262 -9.57097531 192.33498217 -11.44921875 192.32421875 C-12.33158707 192.32715439 -13.21395538 192.33009003 -14.12306213 192.33311462 C-20.18852194 192.2397953 -20.18852194 192.2397953 -23.38745117 190.55517578 C-25.61222792 188.02582312 -25.70344782 185.62731607 -26.1015625 182.328125 C-26.25109375 181.17183594 -26.400625 180.01554688 -26.5546875 178.82421875 C-26.8515625 175.890625 -26.8515625 175.890625 -26.8515625 173.890625 C-30.05526961 173.30280775 -30.05526961 173.30280775 -33.8515625 173.890625 C-35.73362955 175.39987209 -37.23703104 177.1021404 -38.859375 178.88671875 C-52.43925059 192.54647596 -73.56548677 196.11157642 -92.0390625 196.265625 C-111.58494307 196.10176509 -129.61866769 189.75780566 -144.0390625 176.328125 C-156.72033473 162.9815396 -161.50441653 146.88165498 -161.32470703 128.74243164 C-160.68063623 109.6065658 -153.65414702 95.21287178 -139.8359375 81.95703125 C-123.25372462 67.7482267 -101.09756103 65.54566156 -80.2265625 65.453125 C-79.49424408 65.44677032 -78.76192566 65.44041565 -78.00741577 65.43386841 C-66.30764525 65.37082644 -54.97956955 66.55023832 -43.61865234 69.46313477 C-38.65283089 70.66445466 -35.16255439 70.6826826 -30.8515625 68.078125 C-27.39881735 62.57531241 -28.11346395 57.22811411 -29.48046875 51.046875 C-31.96555864 43.11241758 -36.28663152 36.81246658 -43.34765625 32.29296875 C-55.94576669 25.71587304 -71.1311193 23.84979835 -84.8515625 27.890625 C-98.44112155 33.39945724 -104.77522175 40.42554923 -111.1015625 53.453125 C-112.8515625 56.890625 -112.8515625 56.890625 -114.8515625 57.890625 C-120.09458076 58.18317674 -124.75461068 57.41801862 -129.796875 56.09765625 C-130.52977753 55.90975021 -131.26268005 55.72184418 -132.01779175 55.52824402 C-133.55682363 55.13005168 -135.09467064 54.72725385 -136.63134766 54.32006836 C-138.97245537 53.70420544 -141.31948113 53.11629603 -143.66796875 52.52929688 C-145.16971306 52.13710611 -146.67103157 51.74328052 -148.171875 51.34765625 C-148.86781769 51.17659866 -149.56376038 51.00554108 -150.28079224 50.82929993 C-155.02381336 49.53266888 -157.79903981 47.74654011 -160.8515625 43.890625 C-160.90997293 38.36110411 -158.77634463 33.94601427 -156.2890625 29.140625 C-155.93191162 28.44251709 -155.57476074 27.74440918 -155.20678711 27.02514648 C-144.70165064 6.98957693 -128.25220574 -6.87286883 -106.8515625 -14.109375 C-73.30793262 -23.41323396 -28.18459104 -23.40236801 0 0 Z M-100.2265625 114.765625 C-103.41686716 120.90082628 -105.00404521 126.99983705 -103.38671875 133.86328125 C-101.44077194 139.8392954 -98.24272264 144.69150903 -92.91796875 148.14453125 C-80.91239574 154.1142749 -65.467491 154.38894142 -52.79492188 150.21289062 C-41.79664883 145.85963599 -34.84958659 139.84673525 -29.796875 129.22265625 C-28.26259788 125.43768335 -27.72898597 122.22582889 -27.7890625 118.140625 C-27.79808594 117.34140625 -27.80710937 116.5421875 -27.81640625 115.71875 C-27.82800781 115.11546875 -27.83960938 114.5121875 -27.8515625 113.890625 C-48.76400005 106.31365487 -83.01480785 93.93034306 -100.2265625 114.765625 Z " fill="#9E6CFF" transform="translate(1495.8515625,337.109375)"/>
<path d="M0 0 C1.50312744 -0.00430527 1.50312744 -0.00430527 3.03662109 -0.00869751 C5.15137295 -0.01073536 7.26614377 -0.00522507 9.38085938 0.00732422 C12.61371091 0.02338143 15.84531225 0.00746562 19.078125 -0.01171875 C21.13541942 -0.00973627 23.19271306 -0.00589249 25.25 0 C26.69705322 -0.00910904 26.69705322 -0.00910904 28.17333984 -0.0184021 C36.87808045 0.07261152 36.87808045 0.07261152 40.625 3.3984375 C42.13208008 5.73803711 42.13208008 5.73803711 43.39453125 8.55078125 C44.12627563 10.15240112 44.12627563 10.15240112 44.87280273 11.78637695 C45.64732788 13.54340942 45.64732788 13.54340942 46.4375 15.3359375 C46.99885009 16.58022744 47.56146428 17.82394776 48.12524414 19.06713867 C49.65625144 22.45497258 51.16713063 25.85142009 52.67272949 29.25061035 C53.95923979 32.15230869 55.25344939 35.05054955 56.54721069 37.94902039 C59.57610201 44.73711614 62.59515482 51.52959698 65.609375 58.32421875 C65.9420639 59.07410568 66.27475281 59.82399261 66.61752319 60.59660339 C68.62653531 65.13024907 70.62033027 69.67027327 72.60411072 74.2150116 C73.86517835 77.09755069 75.13689316 79.97531071 76.41091919 82.85214233 C77.00560412 84.20188369 77.59546125 85.55376386 78.18014526 86.90786743 C78.98665801 88.77468941 79.81129746 90.63364861 80.63671875 92.4921875 C81.09522217 93.54083984 81.55372559 94.58949219 82.02612305 95.66992188 C83.85001414 98.78242865 85.61771852 100.42736093 88.625 102.3984375 C92.16750051 103.06520628 92.16750051 103.06520628 95.625 102.3984375 C98.85057127 99.70330897 100.62980924 96.8738358 102.47265625 93.12890625 C102.98965088 92.08726318 103.50664551 91.04562012 104.03930664 89.97241211 C104.58321045 88.85487549 105.12711426 87.73733887 105.6875 86.5859375 C106.26040771 85.42392822 106.83331543 84.26191895 107.42358398 83.06469727 C112.4408694 72.85860124 117.35290033 62.60207962 122.23046875 52.32861328 C125.19961924 46.08986254 128.19526465 39.86367044 131.19970703 33.6418457 C133.66091142 28.53583093 136.084483 23.41825543 138.4296875 18.2578125 C139.09665649 16.80689209 139.09665649 16.80689209 139.77709961 15.32666016 C140.61056479 13.50902536 141.4324465 11.68601663 142.24047852 9.85693359 C142.61358154 9.04820801 142.98668457 8.23948242 143.37109375 7.40625 C143.68747803 6.70129395 144.0038623 5.99633789 144.32983398 5.27001953 C146.17939297 2.59731092 147.61017907 1.68764576 150.625 0.3984375 C153.94037605 -0.03031271 157.22316069 -0.02201931 160.5625 0 C161.52019287 -0.00287018 162.47788574 -0.00574036 163.46459961 -0.00869751 C165.48519483 -0.0107349 167.50580992 -0.00522783 169.52636719 0.00732422 C172.61438209 0.02338229 175.70108818 0.00746427 178.7890625 -0.01171875 C180.75521121 -0.00973626 182.72135912 -0.00589247 184.6875 0 C186.06893188 -0.00910904 186.06893188 -0.00910904 187.47827148 -0.0184021 C192.82191683 0.04005725 196.65165535 0.42509285 200.625 4.3984375 C201.37796854 10.95994306 199.14140503 15.34773397 196.19921875 21.1171875 C195.74061966 22.04394287 195.28202057 22.97069824 194.80952454 23.92553711 C193.32303385 26.9229203 191.81782218 29.91047444 190.3125 32.8984375 C189.28561417 34.9621473 188.26022594 37.02660296 187.23632812 39.09179688 C185.24405757 43.10813017 183.24625788 47.12162312 181.24365234 51.1328125 C178.30683607 57.0249492 175.44195809 62.94798404 172.625 68.8984375 C171.81284593 70.60693532 171.00034688 72.31526919 170.1875 74.0234375 C169.58228516 75.29574219 169.58228516 75.29574219 168.96484375 76.59375 C166.20471879 82.37150429 163.41203729 88.13363069 160.625 93.8984375 C155.50180208 104.49827635 150.40601015 115.11087681 145.33203125 125.734375 C140.94621332 134.91593032 136.53736864 144.08644793 132.13232422 153.25878906 C130.65114357 156.34398232 129.17108309 159.42971026 127.69140625 162.515625 C122.33119095 173.69269957 116.95552704 184.86216533 111.5625 196.0234375 C107.35857048 204.72394262 103.16622101 213.42979871 99 222.1484375 C98.56469971 223.05811279 98.12939941 223.96778809 97.6809082 224.9050293 C95.26103915 229.9642678 92.85238248 235.02860834 90.453125 240.09765625 C89.38546312 242.34377208 88.31775579 244.58986631 87.25 246.8359375 C86.76192871 247.87266602 86.27385742 248.90939453 85.77099609 249.97753906 C79.75615639 262.60311591 79.75615639 262.60311591 76.625 266.3984375 C73.86403808 267.31875814 72.1754933 267.53395529 69.32470703 267.55957031 C68.460159 267.56917786 67.59561096 267.5787854 66.7048645 267.58868408 C65.77358734 267.59293396 64.84231018 267.59718384 63.8828125 267.6015625 C62.92228973 267.60726257 61.96176697 267.61296265 60.97213745 267.61883545 C58.93960674 267.62828208 56.90706073 267.63481809 54.87451172 267.63867188 C51.76893343 267.64837832 48.66401674 267.67940536 45.55859375 267.7109375 C43.58333726 267.71746767 41.60807604 267.72271809 39.6328125 267.7265625 C38.7055838 267.7389093 37.7783551 267.7512561 36.82302856 267.76397705 C27.99494583 267.73355404 27.99494583 267.73355404 24.625 264.3984375 C23.09667343 259.17941399 23.70509783 256.12520951 26.1328125 251.35546875 C26.7009668 250.21335937 27.26912109 249.07125 27.85449219 247.89453125 C28.48632646 246.66666581 29.11816245 245.43880125 29.75 244.2109375 C30.7234629 242.26921805 31.69031345 240.32429046 32.65710449 238.37924194 C33.3214612 237.0439226 33.98790676 235.7096406 34.65637207 234.37637329 C38.61416999 226.47169534 42.28838637 218.44200371 45.97753906 210.40893555 C48.48401207 204.96647473 51.02309808 199.55083197 53.6953125 194.1875 C54.17000977 193.22650391 54.64470703 192.26550781 55.13378906 191.27539062 C56.01560169 189.49915903 56.90993199 187.72906151 57.81933594 185.96679688 C58.39989746 184.79213867 58.39989746 184.79213867 58.9921875 183.59375 C59.50434814 182.58852295 59.50434814 182.58852295 60.02685547 181.56298828 C61.37675487 176.6780054 59.32251371 172.27346005 57.24609375 167.8828125 C56.74529297 166.81417969 56.24449219 165.74554688 55.72851562 164.64453125 C55.17873047 163.49082031 54.62894531 162.33710938 54.0625 161.1484375 C53.48173325 159.91568877 52.90167219 158.68260737 52.32226562 157.44921875 C51.08080445 154.80987002 49.83490529 152.17268264 48.58544922 149.53710938 C46.60256015 145.35391626 44.63024488 141.16579648 42.66015625 136.9765625 C41.99032763 135.55240327 41.32048709 134.12824965 40.65063477 132.70410156 C40.31734161 131.99547974 39.98404846 131.28685791 39.64065552 130.5567627 C38.61795987 128.38347683 37.59416625 126.21071135 36.57006836 124.03808594 C31.86208552 114.04774818 27.19919532 104.03747278 22.55859375 94.015625 C18.28333709 84.79283544 13.95951121 75.59349096 9.625 66.3984375 C4.53466291 55.59878151 -0.53594176 44.79044205 -5.5625 33.9609375 C-6.07876953 32.84912109 -6.59503906 31.73730469 -7.12695312 30.59179688 C-8.08810747 28.51839523 -9.04659043 26.44375241 -10.00195312 24.36767578 C-10.93722287 22.34513833 -11.88433863 20.32804643 -12.84179688 18.31591797 C-13.30005859 17.34154785 -13.75832031 16.36717773 -14.23046875 15.36328125 C-14.64063232 14.50210693 -15.0507959 13.64093262 -15.47338867 12.75366211 C-16.89292402 9.045496 -16.76856854 7.11462027 -15.375 3.3984375 C-10.80127032 -0.55825701 -5.72399251 -0.0360319 0 0 Z " fill="#9E6CFF" transform="translate(1136.375,321.6015625)"/>
<path d="M0 0 C2.45106559 3.18836372 4.32544731 6.37081294 6.15234375 9.9609375 C6.44831955 10.53899139 6.74429535 11.11704529 7.04924011 11.71261597 C7.68429712 12.95304678 8.31784317 14.19425211 8.95001221 15.43615723 C10.63051714 18.73567634 12.32406243 22.02846266 14.01953125 25.3203125 C14.35946106 25.98035278 14.69939087 26.64039307 15.04962158 27.32043457 C17.98900741 33.01119861 21.03214796 38.64116847 24.125 44.25 C28.93683043 52.98219236 33.56286558 61.79997913 38.12963867 70.66259766 C41.28646511 76.76936999 44.53328416 82.81297722 47.87744141 88.8190918 C60.82186389 112.10082069 67.3869282 134.41008931 60.22265625 160.87109375 C53.5219042 182.98645137 38.98351312 199.01632572 19 210 C13.95615004 212.68900999 8.88020333 215.3152588 3.79711914 217.92919922 C-3.38168049 221.62170137 -10.49173139 225.41747963 -17.5625 229.3125 C-42.96379323 243.25101756 -42.96379323 243.25101756 -55 247 C-56.05574219 247.33644531 -56.05574219 247.33644531 -57.1328125 247.6796875 C-62.13736697 249.11236388 -66.85179018 249.21450874 -72 249 C-72.76206872 234.77471729 -68.36022739 221.04953084 -64.07806396 207.65344238 C-63.21559262 204.95484221 -62.3645387 202.25285208 -61.51611328 199.54980469 C-60.6074628 196.65504411 -59.69823039 193.7604836 -58.78579712 190.86691284 C-55.73092219 181.17614122 -52.75448651 171.46196311 -49.78869629 161.74362183 C-48.22332536 156.61486228 -46.65431586 151.48721549 -45.0859375 146.359375 C-44.76125488 145.29746445 -44.43657227 144.23555389 -44.10205078 143.14146423 C-41.52169764 134.70272098 -38.93742348 126.26518179 -36.3515625 117.828125 C-36.15337543 117.18147636 -35.95518837 116.53482773 -35.75099564 115.86858368 C-33.92929476 109.92481193 -32.10736197 103.98111129 -30.28521729 98.03747559 C-29.08066597 94.1083489 -27.87621544 90.17919133 -26.671875 86.25 C-26.47498455 85.60764656 -26.2780941 84.96529312 -26.07523727 84.30347443 C-23.27984567 75.18291328 -20.48968223 66.06076413 -17.703125 56.9375 C-17.02671388 54.72395186 -16.35028207 52.51041005 -15.67382812 50.296875 C-14.44201169 46.26603468 -13.21173007 42.23473086 -11.98242188 38.203125 C-8.0843328 25.43772099 -4.07434846 12.71022097 0 0 Z " fill="#FE8389" transform="translate(804,283)"/>
<path d="M0 0 C5.99600416 3.66919657 10.43095838 8.52847834 12.4375 15.3125 C13.59699689 23.62718284 13.09122299 30.28792786 8.20703125 37.25390625 C3.62632805 42.5828921 -1.51638336 45.60154048 -8.5625 46.3125 C-16.12040225 46.40893256 -22.47678196 44.7960147 -28.28515625 39.84375 C-33.17100531 34.7538237 -35.46556541 28.7004058 -35.62109375 21.66015625 C-35.10537386 14.36326844 -32.71425763 8.5998302 -27.5625 3.3125 C-19.83988059 -2.90660059 -9.09301153 -4.20207351 0 0 Z M-25.9375 9.6875 C-29.41165998 14.15562946 -30.81116412 18.00875488 -30.5 23.6875 C-29.55565197 30.19910912 -26.57876306 34.73981482 -21.4375 38.75 C-16.82235029 41.25823354 -12.7556525 41.96280532 -7.5625 41.3125 C-1.38552385 39.39590553 2.86520258 35.64004391 6.4375 30.3125 C8.13332898 25.22501305 8.42881523 19.36008626 6.75390625 14.2109375 C3.93498405 8.90060274 -0.09398753 5.39247421 -5.5625 3 C-13.92178513 1.08433049 -20.19794586 3.37399045 -25.9375 9.6875 Z " fill="#9E6CFF" transform="translate(645.5625,565.6875)"/>
<path d="M0 0 C13.33333333 -0.49382716 13.33333333 -0.49382716 16.42578125 1.796875 C18.7024252 4.98304668 18.47778994 7.17768049 18 11 C16.5 13.4375 16.5 13.4375 15 15 C15.495 15.5775 15.99 16.155 16.5 16.75 C18 19 18 19 18 23 C15.75 22.875 15.75 22.875 13 22 C11.66666667 20 10.33333333 18 9 16 C6.37233611 15.03780298 6.37233611 15.03780298 4 15 C4 17.64 4 20.28 4 23 C2.68 23 1.36 23 0 23 C0 15.41 0 7.82 0 0 Z M4 4 C4 5.98 4 7.96 4 10 C6.64 10 9.28 10 12 10 C12.33 8.68 12.66 7.36 13 6 C9.5647952 3.70986347 8.014669 3.82157027 4 4 Z " fill="#9E6CFF" transform="translate(626,576)"/>
</svg>
